<?xml version="1.0" encoding="UTF-8" standalone="no"?><!DOCTYPE svg PUBLIC "-//W3C//DTD SVG 1.1//EN" "http://www.w3.org/Graphics/SVG/1.1/DTD/svg11.dtd"><svg width="100%" height="100%" viewBox="0 0 4167 4167" version="1.1" xmlns="http://www.w3.org/2000/svg" xmlns:xlink="http://www.w3.org/1999/xlink" xml:space="preserve" xmlns:serif="http://www.serif.com/" style="fill-rule:evenodd;clip-rule:evenodd;stroke-linejoin:round;stroke-miterlimit:2;"><g><path d="M4166.67,728.595c-0,-402.123 -326.473,-728.595 -728.595,-728.595l-2709.48,0c-402.123,0 -728.595,326.472 -728.595,728.595l-0,2709.48c-0,402.122 326.472,728.595 728.595,728.595l2709.48,-0c402.122,-0 728.595,-326.473 728.595,-728.595l-0,-2709.48Z" style="fill:#fff;fill-opacity:0;"/><path d="M2083.33,620.449c6.19,-0.083 12.389,-0.125 18.595,-0.125c270.872,-0 523.89,77.917 738.334,212.778c50.393,31.707 87.407,81.371 103.838,139.333l49.267,173.765c28.005,101.046 11.532,208.297 -42.024,298.016l-389.056,633.573c-5.207,8.482 -3.232,19.609 4.568,25.696c7.8,6.087 18.865,5.136 25.555,-2.195l555.282,-608.57c34.887,-36.734 55.068,-85.401 56.592,-136.483c-0,-0 2.097,-70.262 3.74,-124.398c0.274,-9.191 6.268,-17.184 14.899,-19.88c8.636,-2.69 17.993,0.514 23.274,7.973c161.74,231.068 256.824,513.177 256.824,817.564c-0,782.164 -627.806,1417.18 -1401.09,1417.18c-6.206,0 -12.405,-0.042 -18.595,-0.125c-6.19,0.083 -12.388,0.125 -18.594,0.125c-270.872,0 -523.89,-77.917 -738.334,-212.778c-50.393,-31.707 -87.407,-81.371 -103.839,-139.333c-13.85,-48.846 -26.988,-93.382 -49.266,-173.765c-28.005,-101.046 -11.532,-208.297 42.023,-298.016c0,-0 388.946,-633.394 389.057,-633.573c5.207,-8.482 3.232,-19.609 -4.568,-25.696c-7.8,-6.087 -18.865,-5.136 -25.555,2.195l-555.283,608.57c-34.887,36.734 -55.067,85.401 -56.591,136.483c0,0 -2.097,70.262 -3.74,124.398c-0.275,9.191 -6.268,17.184 -14.9,19.88c-8.636,2.69 -17.992,-0.514 -23.273,-7.973c-161.74,-231.068 -256.824,-513.177 -256.824,-817.564c-0,-782.164 627.806,-1417.18 1401.09,-1417.18c6.206,-0 12.404,0.042 18.594,0.125Zm411.457,1369.57c5.367,-26.2 -11.163,-47.478 -36.894,-47.478l-710.223,0c-25.731,0 -50.979,21.278 -56.346,47.478l-19.455,94.956c-5.366,26.204 11.164,47.473 36.895,47.473l710.227,0c25.731,0 50.975,-21.269 56.345,-47.473l19.451,-94.956Z"/></g></svg>