<svg width="474" height="474" viewBox="0 0 474 474" fill="none" xmlns="http://www.w3.org/2000/svg">
<path fill-rule="evenodd" clip-rule="evenodd" d="M237.001 418.676C236.301 418.684 235.601 418.688 234.9 418.688C133.936 418.688 51.9661 337.275 51.9661 236.998C51.9661 136.72 133.936 55.3066 234.9 55.3066C235.601 55.3066 236.301 55.3108 237.001 55.3187V79.7745C236.301 79.7653 235.601 79.7606 234.9 79.7606C147.525 79.7606 76.5872 150.216 76.5872 236.998C76.5872 270.77 87.3309 302.07 105.606 327.707C106.203 328.535 107.26 328.891 108.236 328.592C109.211 328.293 109.888 327.406 109.919 326.386C110.105 320.38 110.342 312.584 110.342 312.584C110.514 306.917 112.794 301.517 116.736 297.441L179.479 229.92C180.235 229.106 181.485 229.001 182.367 229.676C183.248 230.352 183.471 231.586 182.883 232.527C182.87 232.547 138.923 302.823 138.923 302.823C132.871 312.777 131.01 324.677 134.174 335.888C136.692 344.807 138.176 349.748 139.741 355.167C141.598 361.598 145.78 367.109 151.474 370.626C175.704 385.589 204.293 394.234 234.9 394.234C235.601 394.234 236.301 394.23 237.001 394.221V418.676Z" fill="white"/>
<path fill-rule="evenodd" clip-rule="evenodd" d="M237.001 55.3184C237.7 55.3105 238.4 55.3064 239.102 55.3064C340.065 55.3064 422.035 136.719 422.035 236.997C422.035 337.275 340.065 418.688 239.102 418.688C238.4 418.688 237.7 418.684 237.001 418.676V394.22C237.7 394.229 238.4 394.234 239.102 394.234C326.477 394.234 397.414 323.779 397.414 236.997C397.414 203.225 386.67 171.924 368.395 146.287C367.798 145.46 366.741 145.104 365.765 145.403C364.79 145.702 364.113 146.589 364.082 147.608C363.896 153.615 363.659 161.41 363.659 161.41C363.487 167.078 361.207 172.478 357.265 176.553L294.522 244.075C293.766 244.888 292.516 244.994 291.635 244.318C290.753 243.643 290.53 242.409 291.118 241.468L335.079 171.172C341.13 161.217 342.991 149.318 339.827 138.107L334.26 118.827C332.404 112.396 328.221 106.886 322.527 103.368C298.297 88.4052 269.708 79.7603 239.102 79.7603C238.4 79.7603 237.7 79.765 237.001 79.7738L237.001 55.3184Z" fill="white"/>
<path fill-rule="evenodd" clip-rule="evenodd" d="M283.492 231.729C284.099 228.822 282.231 226.461 279.323 226.461H199.074C196.166 226.461 193.314 228.822 192.707 231.729L190.509 242.264C189.902 245.172 191.77 247.532 194.678 247.532H274.928C277.835 247.532 280.688 245.172 281.294 242.264L283.492 231.729Z" fill="white"/>
</svg>
