<?xml version="1.0" encoding="UTF-8" standalone="no"?>
<!DOCTYPE svg PUBLIC "-//W3C//DTD SVG 1.1//EN" "http://www.w3.org/Graphics/SVG/1.1/DTD/svg11.dtd">
<svg width="100%" height="100%" viewBox="0 0 23223 5556" version="1.1" xmlns="http://www.w3.org/2000/svg" xmlns:xlink="http://www.w3.org/1999/xlink" xml:space="preserve" xmlns:serif="http://www.serif.com/" style="fill-rule:evenodd;clip-rule:evenodd;stroke-linejoin:round;stroke-miterlimit:2;">
    <g transform="matrix(5.55556,0,0,5.55556,0,0)" fill="#fff">
        <g id="Layer-1">
            <path d="M2759.26,702.508L3957.62,701.481L3957.62,799.537L2759.26,799.537L2759.26,702.508Z" style="fill:rgb(237,28,36);"/>
            <path d="M3097.46,426.251C3097.46,477.467 3090.38,518.643 3076.22,549.78C3062.07,580.916 3040.72,603.564 3012.18,617.725C2983.67,631.864 2943.55,638.929 2891.84,638.919L2761.93,638.919L2761.93,213.629L2890.57,213.629C2940.84,213.629 2980.81,220.905 3010.46,235.457C3040.12,250.009 3062.03,272.699 3076.19,303.526C3090.37,334.353 3097.46,375.261 3097.46,426.251ZM3007.88,425.647C3007.88,388.519 3004.26,361.018 2997.03,343.145C2990.34,325.848 2976.98,311.954 2959.94,304.578C2942.49,296.791 2916.66,292.903 2882.45,292.913L2849.05,292.913L2849.05,559.603L2882.29,559.603C2916.55,559.603 2942.36,555.664 2959.71,547.784C2977.05,539.905 2989.42,526.74 2996.79,508.289C3004.19,489.869 3007.89,462.322 3007.88,425.647Z"/>
            <path d="M3146.74,638.872L3287.78,213.629L3400.75,213.629L3542.05,638.872L3453.05,638.872L3424.74,552.534L3260.64,552.534L3232.98,638.872L3146.74,638.872ZM3285.25,476.652L3400.08,476.652L3342.81,300.896L3285.25,476.652Z"/>
            <path d="M3957.62,426.251C3957.62,500.198 3941.98,555.607 3910.68,592.477C3879.38,629.348 3833.88,647.783 3774.17,647.783C3711.14,647.783 3664.81,628.378 3635.18,589.569C3605.54,550.759 3590.72,496.32 3590.7,426.251C3590.7,355.799 3605.52,301.262 3635.18,262.638C3664.83,224.014 3711.16,204.692 3774.17,204.672C3837.57,204.672 3884,223.978 3913.45,262.592C3942.91,301.205 3957.63,355.758 3957.62,426.251ZM3868.04,426.251C3868.04,375.859 3860.91,339.143 3846.65,316.103C3832.4,293.063 3808.23,281.543 3774.17,281.543C3740.07,281.543 3715.9,293.063 3701.67,316.103C3687.43,339.143 3680.3,375.859 3680.28,426.251C3680.28,476.652 3687.51,513.373 3701.98,536.414C3716.44,559.454 3740.51,570.974 3774.17,570.974C3808.26,570.974 3832.43,559.454 3846.65,536.414C3860.88,513.373 3868.01,476.652 3868.04,426.251Z"/>
            <g>
                <path d="M529.534,488.5C529.534,529.802 515.336,560.034 486.941,579.195C458.546,598.357 419.13,607.938 368.694,607.938L213.811,607.938L213.811,195.712L359.461,195.712C412.28,195.712 450.107,203.406 472.942,218.795C495.777,234.184 507.195,258.558 507.195,291.918C507.195,317.533 500.99,338.283 488.579,354.169C476.169,370.054 456.759,380.677 430.349,386.039C464.9,390.804 490.069,401.726 505.855,418.802C521.641,435.879 529.534,459.112 529.534,488.5ZM422.307,310.384C422.307,294.698 416.549,283.826 405.032,277.77C393.515,271.713 375.644,268.685 351.419,268.685L297.805,268.685L297.805,357.147L349.036,357.147C373.857,357.147 392.274,353.672 404.287,346.722C416.301,339.772 422.307,327.66 422.307,310.384ZM443.753,481.053C443.753,462.587 437.498,449.531 424.988,441.886C412.478,434.241 389.047,430.419 354.695,430.419L297.805,430.419L297.805,533.475L340.398,533.475C373.162,533.475 395.749,531.887 408.159,528.71C420.57,525.532 429.605,520.171 435.264,512.626C440.923,505.08 443.753,494.556 443.753,481.053Z"/>
                <path d="M783.303,607.938L783.303,575.472C752.923,603.272 720.357,617.171 685.608,617.171C651.057,617.171 624.946,608.087 607.273,589.918C589.601,571.749 580.764,548.467 580.764,520.072C580.764,497.832 585.282,479.465 594.317,464.969C603.351,450.474 616.755,439.106 634.527,430.865C652.298,422.625 677.864,416.817 711.223,413.441L777.049,407.186L777.049,393.187C777.049,375.713 771.787,363.749 761.262,357.296C750.738,350.843 735.349,347.616 715.095,347.616C698.416,347.616 684.069,350.396 672.056,355.956C660.043,361.516 651.157,369.458 645.398,379.784L585.53,341.361C596.054,323.688 612.535,310.136 634.973,300.704C657.412,291.272 684.516,286.556 716.287,286.556C764.936,286.556 800.033,295.045 821.577,312.023C843.122,329 853.894,356.849 853.894,395.57L853.894,607.938L783.303,607.938ZM777.049,462.884L738.03,466.459C710.429,468.841 690.523,474.103 678.311,482.245C666.099,490.386 659.993,502.598 659.993,518.88C659.993,533.177 663.964,542.957 671.907,548.219C679.85,553.481 690.374,556.112 703.479,556.112C712.812,556.112 724.18,553.183 737.583,547.325C750.987,541.468 764.142,533.177 777.049,522.455L777.049,462.884Z"/>
                <path d="M1139.53,607.938L1139.53,435.78C1139.53,403.215 1136.61,381.472 1130.75,370.55C1124.89,359.629 1113.82,354.169 1097.54,354.169C1074.7,354.169 1047.2,369.26 1015.03,399.442L1015.03,607.938L938.186,607.938L938.186,295.492L1015.03,295.492L1015.03,336C1031.31,319.717 1048.69,307.406 1067.16,299.066C1085.62,290.726 1103.69,286.556 1121.36,286.556C1153.33,286.556 1177.16,295.293 1192.85,312.767C1208.54,330.241 1216.38,359.133 1216.38,399.442L1216.38,607.938L1139.53,607.938Z"/>
                <path d="M1491,607.938L1407.6,478.671L1377.52,510.838L1377.52,607.938L1300.67,607.938L1300.67,164.437L1377.52,164.437L1377.52,418.207L1482.66,295.492L1571.72,295.492L1453.77,426.844L1578.27,607.938L1491,607.938Z"/>
                <rect x="1628.31" y="164.437" width="76.84" height="443.501"/>
                <path d="M1855.27,471.82C1856.66,499.619 1863.41,519.575 1875.53,531.688C1887.64,543.801 1906.7,549.857 1932.71,549.857C1947.8,549.857 1961.06,547.971 1972.48,544.198C1983.89,540.425 1993.87,533.177 2002.41,522.455L2059.6,563.26C2047.09,581.33 2030.85,594.833 2010.9,603.768C1990.94,612.704 1963.69,617.171 1929.14,617.171C1877.71,617.171 1839.34,603.669 1814.02,576.664C1788.7,549.658 1776.04,508.853 1776.04,454.247C1776.04,342.453 1826.08,286.556 1926.16,286.556C1970.64,286.556 2004.54,299.116 2027.88,324.234C2051.21,349.353 2062.87,385.939 2062.87,433.993L2062.87,471.82L1855.27,471.82ZM1986.62,418.802C1986.62,371.345 1965.87,347.616 1924.37,347.616C1910.67,347.616 1899.45,349.949 1890.72,354.615C1881.98,359.282 1874.98,366.232 1869.72,375.465C1864.45,384.698 1860.33,399.144 1857.36,418.802L1986.62,418.802Z"/>
                <path d="M2370.85,518.88C2370.85,539.532 2365.64,557.204 2355.22,571.898C2344.79,586.592 2330,597.811 2310.84,605.555C2291.67,613.299 2269.78,617.171 2245.16,617.171C2179.83,617.171 2135.35,599.003 2111.72,562.665L2168.91,522.455C2178.24,535.163 2189.01,543.652 2201.23,547.921C2213.44,552.19 2226.49,554.325 2240.39,554.325C2276.93,554.325 2295.2,543.701 2295.2,522.455C2295.2,513.122 2290.04,505.924 2279.71,500.86C2269.38,495.797 2253.2,490.585 2231.16,485.223C2189.66,476.089 2160.47,463.182 2143.59,446.503C2126.71,429.823 2118.27,408.179 2118.27,381.571C2118.27,353.97 2128.85,331.234 2150,313.363C2171.14,295.492 2202.27,286.556 2243.37,286.556C2271.37,286.556 2296.04,291.024 2317.39,299.96C2338.73,308.895 2355.17,322.298 2366.68,340.17L2309.2,380.975C2295.5,359.927 2273.16,349.403 2242.18,349.403C2226.29,349.403 2214.28,352.133 2206.14,357.594C2198,363.054 2193.93,370.054 2193.93,378.592C2193.93,386.734 2197.6,393.237 2204.95,398.102C2212.3,402.967 2226.79,408.08 2248.44,413.441C2283.98,422.178 2309.35,430.865 2324.54,439.503C2339.73,448.141 2351.24,458.863 2359.09,471.671C2366.93,484.479 2370.85,500.215 2370.85,518.88Z"/>
                <path d="M2676.45,518.88C2676.45,539.532 2671.24,557.204 2660.81,571.898C2650.39,586.592 2635.59,597.811 2616.43,605.555C2597.27,613.299 2575.38,617.171 2550.75,617.171C2485.43,617.171 2440.95,599.003 2417.32,562.665L2474.5,522.455C2483.84,535.163 2494.61,543.652 2506.82,547.921C2519.03,552.19 2532.09,554.325 2545.99,554.325C2582.53,554.325 2600.79,543.701 2600.79,522.455C2600.79,513.122 2595.63,505.924 2585.31,500.86C2574.98,495.797 2558.8,490.585 2536.76,485.223C2495.25,476.089 2466.07,463.182 2449.19,446.503C2432.31,429.823 2423.87,408.179 2423.87,381.571C2423.87,353.97 2434.44,331.234 2455.59,313.363C2476.74,295.492 2507.86,286.556 2548.97,286.556C2576.97,286.556 2601.64,291.024 2622.98,299.96C2644.33,308.895 2660.76,322.298 2672.28,340.17L2614.79,380.975C2601.09,359.927 2578.75,349.403 2547.78,349.403C2531.89,349.403 2519.88,352.133 2511.74,357.594C2503.59,363.054 2499.52,370.054 2499.52,378.592C2499.52,386.734 2503.2,393.237 2510.54,398.102C2517.89,402.967 2532.39,408.08 2554.03,413.441C2589.57,422.178 2614.94,430.865 2630.13,439.503C2645.32,448.141 2656.84,458.863 2664.68,471.671C2672.53,484.479 2676.45,500.215 2676.45,518.88Z"/>
            </g>
        </g>
    </g>
</svg>
