<svg width="139" height="43" viewBox="0 0 139 43" fill="none" xmlns="http://www.w3.org/2000/svg">
<path d="M8.63233 35.2062C7.20297 35.2062 5.97936 34.903 4.96149 34.2966C3.96527 33.6686 3.20728 32.8023 2.68752 31.6978C2.16775 30.5933 1.90787 29.3047 1.90787 27.8321V17.0794H6.78066V27.4422C6.78066 28.1136 6.91061 28.7092 7.17049 29.2289C7.45203 29.727 7.84185 30.1169 8.33996 30.3984C8.83807 30.6799 9.40115 30.8207 10.0292 30.8207C10.6789 30.8207 11.242 30.6799 11.7184 30.3984C12.2165 30.1169 12.5955 29.727 12.8554 29.2289C13.137 28.7092 13.2777 28.1136 13.2777 27.4422V17.0794H18.1505V34.8164H13.6026V31.308L13.8625 32.0876C13.451 33.1488 12.7796 33.9393 11.8484 34.4591C10.9388 34.9572 9.86677 35.2062 8.63233 35.2062ZM22.6865 34.8164V17.0794H27.2345V20.5878L26.9746 19.8082C27.3861 18.747 28.0466 17.9674 28.9562 17.4693C29.8874 16.9495 30.9703 16.6896 32.2047 16.6896C33.5475 16.6896 34.7169 16.9711 35.7131 17.5342C36.731 18.0973 37.5215 18.8878 38.0846 19.9057C38.6476 20.9019 38.9292 22.0713 38.9292 23.4141V34.8164H34.0564V24.4536C34.0564 23.7606 33.9156 23.165 33.6341 22.6669C33.3742 22.1688 32.9952 21.779 32.4971 21.4974C32.0206 21.2159 31.4576 21.0751 30.8079 21.0751C30.1798 21.0751 29.6167 21.2159 29.1186 21.4974C28.6205 21.779 28.2307 22.1688 27.9492 22.6669C27.6893 23.165 27.5593 23.7606 27.5593 24.4536V34.8164H22.6865ZM53.0484 35.2062C51.8356 35.2062 50.7094 34.9897 49.6699 34.5565C48.652 34.1017 47.8291 33.4412 47.201 32.5749L47.6558 31.5679V34.8164H43.1079V10.225H47.9807V20.4579L47.2335 19.4833C47.8182 18.5954 48.6087 17.9132 49.6049 17.4368C50.6228 16.9387 51.7814 16.6896 53.0809 16.6896C54.7701 16.6896 56.2969 17.1011 57.6613 17.924C59.0257 18.747 60.1085 19.8623 60.9098 21.27C61.7111 22.6561 62.1118 24.2154 62.1118 25.9479C62.1118 27.6588 61.7111 29.2181 60.9098 30.6258C60.1302 32.0335 59.0581 33.1488 57.6938 33.9718C56.3294 34.7947 54.7809 35.2062 53.0484 35.2062ZM52.4636 30.8207C53.3732 30.8207 54.1745 30.615 54.8675 30.2035C55.5606 29.792 56.102 29.2181 56.4918 28.4818C56.8816 27.7454 57.0765 26.9008 57.0765 25.9479C57.0765 24.995 56.8816 24.1612 56.4918 23.4465C56.102 22.7102 55.5606 22.1363 54.8675 21.7248C54.1745 21.2917 53.3732 21.0751 52.4636 21.0751C51.5974 21.0751 50.8177 21.2809 50.1247 21.6923C49.4533 22.1038 48.9227 22.6777 48.5329 23.4141C48.1647 24.1504 47.9807 24.995 47.9807 25.9479C47.9807 26.9008 48.1647 27.7454 48.5329 28.4818C48.9227 29.2181 49.4533 29.792 50.1247 30.2035C50.8177 30.615 51.5974 30.8207 52.4636 30.8207ZM65.9402 34.8164V10.225H70.813V34.8164H65.9402ZM110.007 35.2062C108.231 35.2062 106.629 34.8056 105.199 34.0043C103.792 33.1813 102.665 32.066 101.821 30.6583C100.998 29.2506 100.586 27.6696 100.586 25.9154C100.586 24.1612 100.998 22.5911 101.821 21.2051C102.644 19.7974 103.77 18.6929 105.199 17.8916C106.629 17.0903 108.231 16.6896 110.007 16.6896C111.328 16.6896 112.552 16.917 113.678 17.3718C114.804 17.8266 115.768 18.4655 116.569 19.2884C117.37 20.0897 117.944 21.0426 118.291 22.1471L114.068 23.9663C113.764 23.0784 113.245 22.3745 112.508 21.8548C111.794 21.335 110.96 21.0751 110.007 21.0751C109.162 21.0751 108.404 21.2809 107.733 21.6923C107.083 22.1038 106.564 22.6777 106.174 23.4141C105.806 24.1504 105.622 24.995 105.622 25.9479C105.622 26.9008 105.806 27.7454 106.174 28.4818C106.564 29.2181 107.083 29.792 107.733 30.2035C108.404 30.615 109.162 30.8207 110.007 30.8207C110.982 30.8207 111.826 30.5608 112.541 30.0411C113.256 29.5213 113.764 28.8175 114.068 27.9295L118.291 29.7812C117.966 30.8207 117.403 31.752 116.602 32.5749C115.8 33.3979 114.837 34.0476 113.71 34.524C112.584 34.9788 111.35 35.2062 110.007 35.2062ZM121.16 34.8164V10.225H126.033V25.9804L124.214 25.3957L132.043 17.0794H138.053L131.62 24.2262L138.02 34.8164H132.498L127.137 25.818L129.964 25.1033L124.539 31.0156L126.033 28.1894V34.8164H121.16Z" fill="#fff"/>
<path fill-rule="evenodd" clip-rule="evenodd" d="M79.2004 26.1286L86.395 33.2436L93.5856 26.1326L86.391 19.0175L79.2004 26.1286ZM86.3938 18.828L82.7955 15.2695L75.4141 22.5694L79.0135 26.129L75.4145 29.6882L82.796 36.988L86.3938 33.43L89.9928 36.9892L97.3743 29.6894L93.774 26.129L97.3707 22.5721L89.9892 15.2723L86.3938 18.828Z" fill="url(#paint0_linear_53_2213)"/>
<defs>
<linearGradient id="paint0_linear_53_2213" x1="75.4141" y1="31.2665" x2="97.3744" y2="31.3324" gradientUnits="userSpaceOnUse">
<stop stop-color="#9C3A92"/>
<stop offset="0.573776" stop-color="#E01668"/>
<stop offset="1" stop-color="#EC781F"/>
</linearGradient>
</defs>
</svg>
